<svg width="44" height="42" viewBox="0 0 44 42" fill="none" xmlns="http://www.w3.org/2000/svg">
<g filter="url(#filter0_d_87_1685)">
<rect x="2.04004" y="2" width="39" height="38" rx="19" fill="#E6E7E8" shape-rendering="crispEdges"/>
<g clip-path="url(#clip0_87_1685)">
<path d="M23.1093 22.4188C23.1093 22.4188 23.2418 22.2863 23.5069 22.0212C23.772 21.7561 23.9045 21.249 23.9045 20.4997C23.9045 19.7505 23.6394 19.1108 23.1093 18.5806C22.5792 18.0505 21.9395 17.7854 21.1902 17.7854C20.441 17.7854 19.8013 18.0505 19.2711 18.5806C18.741 19.1108 18.4759 19.7505 18.4759 20.4997C18.4759 21.249 18.741 21.8887 19.2711 22.4188C19.8013 22.9489 20.441 23.214 21.1902 23.214C21.9395 23.214 22.5792 22.9489 23.1093 22.4188ZM24.1484 17.5416C24.1484 17.5416 24.3516 17.7448 24.758 18.1512C25.1645 18.5577 25.3677 19.3405 25.3677 20.4997C25.3677 21.6589 24.9612 22.645 24.1484 23.4579C23.3355 24.2707 22.3494 24.6772 21.1902 24.6772C20.031 24.6772 19.0449 24.2707 18.2321 23.4579C17.4192 22.645 17.0128 21.6589 17.0128 20.4997C17.0128 19.3405 17.4192 18.3544 18.2321 17.5416C19.0449 16.7287 20.031 16.3223 21.1902 16.3223C22.3494 16.3223 23.3355 16.7287 24.1484 17.5416ZM26.2265 15.4634C26.2265 15.4634 26.2742 15.5112 26.3696 15.6066C26.4651 15.702 26.5128 15.884 26.5128 16.1526C26.5128 16.4212 26.4173 16.6509 26.2265 16.8418C26.0356 17.0326 25.8059 17.1281 25.5373 17.1281C25.2687 17.1281 25.039 17.0326 24.8481 16.8418C24.6573 16.6509 24.5619 16.4212 24.5619 16.1526C24.5619 15.884 24.6573 15.6543 24.8481 15.4634C25.039 15.2726 25.2687 15.1772 25.5373 15.1772C25.8059 15.1772 26.0356 15.2726 26.2265 15.4634ZM22.0013 13.8147C22.0013 13.8147 21.8785 13.8156 21.6329 13.8174C21.3873 13.8192 21.2397 13.82 21.1902 13.82C21.1407 13.82 20.8704 13.8183 20.3791 13.8147C19.8879 13.8112 19.515 13.8112 19.2605 13.8147C19.0061 13.8183 18.665 13.8289 18.2374 13.8465C17.8097 13.8642 17.4457 13.8996 17.1453 13.9526C16.8449 14.0056 16.5922 14.071 16.3872 14.1487C16.0338 14.2901 15.7228 14.4951 15.4542 14.7637C15.1856 15.0323 14.9806 15.3433 14.8392 15.6967C14.7615 15.9017 14.6961 16.1544 14.6431 16.4548C14.5901 16.7552 14.5547 17.1192 14.537 17.5469C14.5194 17.9745 14.5088 18.3156 14.5052 18.57C14.5017 18.8245 14.5017 19.1974 14.5052 19.6886C14.5088 20.1799 14.5105 20.4502 14.5105 20.4997C14.5105 20.5492 14.5088 20.8196 14.5052 21.3108C14.5017 21.8021 14.5017 22.1749 14.5052 22.4294C14.5088 22.6839 14.5194 23.0249 14.537 23.4526C14.5547 23.8802 14.5901 24.2442 14.6431 24.5446C14.6961 24.8451 14.7615 25.0977 14.8392 25.3027C14.9806 25.6562 15.1856 25.9672 15.4542 26.2358C15.7228 26.5044 16.0338 26.7094 16.3872 26.8507C16.5922 26.9285 16.8449 26.9939 17.1453 27.0469C17.4457 27.0999 17.8097 27.1352 18.2374 27.1529C18.665 27.1706 19.0061 27.1812 19.2605 27.1847C19.515 27.1882 19.8879 27.1882 20.3791 27.1847C20.8704 27.1812 21.1407 27.1794 21.1902 27.1794C21.2397 27.1794 21.5101 27.1812 22.0013 27.1847C22.4926 27.1882 22.8654 27.1882 23.1199 27.1847C23.3744 27.1812 23.7154 27.1706 24.1431 27.1529C24.5707 27.1352 24.9347 27.0999 25.2351 27.0469C25.5356 26.9939 25.7882 26.9285 25.9932 26.8507C26.3467 26.7094 26.6577 26.5044 26.9263 26.2358C27.1949 25.9672 27.3999 25.6562 27.5412 25.3027C27.619 25.0977 27.6844 24.8451 27.7374 24.5446C27.7904 24.2442 27.8257 23.8802 27.8434 23.4526C27.8611 23.0249 27.8717 22.6839 27.8752 22.4294C27.8787 22.1749 27.8787 21.8021 27.8752 21.3108C27.8717 20.8196 27.8699 20.5492 27.8699 20.4997C27.8699 20.4502 27.8717 20.1799 27.8752 19.6886C27.8787 19.1974 27.8787 18.8245 27.8752 18.57C27.8717 18.3156 27.8611 17.9745 27.8434 17.5469C27.8257 17.1192 27.7904 16.7552 27.7374 16.4548C27.6844 16.1544 27.619 15.9017 27.5412 15.6967C27.3999 15.3433 27.1949 15.0323 26.9263 14.7637C26.6577 14.4951 26.3467 14.2901 25.9932 14.1487C25.7882 14.071 25.5356 14.0056 25.2351 13.9526C24.9347 13.8996 24.5707 13.8642 24.1431 13.8465C23.7154 13.8289 23.3744 13.8183 23.1199 13.8147C22.8654 13.8112 22.4926 13.8112 22.0013 13.8147ZM29.2801 17.1387C29.3154 17.7607 29.3331 18.881 29.3331 20.4997C29.3331 22.1184 29.3154 23.2387 29.2801 23.8608C29.2094 25.331 28.7711 26.469 27.9653 27.2748C27.1595 28.0806 26.0215 28.5189 24.5513 28.5896C23.9292 28.6249 22.8089 28.6426 21.1902 28.6426C19.5715 28.6426 18.4512 28.6249 17.8292 28.5896C16.3589 28.5189 15.2209 28.0806 14.4151 27.2748C13.6093 26.469 13.1711 25.331 13.1004 23.8608C13.065 23.2387 13.0474 22.1184 13.0474 20.4997C13.0474 18.881 13.065 17.7607 13.1004 17.1387C13.1711 15.6684 13.6093 14.5304 14.4151 13.7246C15.2209 12.9188 16.3589 12.4806 17.8292 12.4099C18.4512 12.3745 19.5715 12.3569 21.1902 12.3569C22.8089 12.3569 23.9292 12.3745 24.5513 12.4099C26.0215 12.4806 27.1595 12.9188 27.9653 13.7246C28.7711 14.5304 29.2094 15.6684 29.2801 17.1387Z" fill="#040404"/>
</g>
</g>
<defs>
<filter id="filter0_d_87_1685" x="0.0400391" y="0" width="43" height="42" filterUnits="userSpaceOnUse" color-interpolation-filters="sRGB">
<feFlood flood-opacity="0" result="BackgroundImageFix"/>
<feColorMatrix in="SourceAlpha" type="matrix" values="0 0 0 0 0 0 0 0 0 0 0 0 0 0 0 0 0 0 127 0" result="hardAlpha"/>
<feOffset/>
<feGaussianBlur stdDeviation="1"/>
<feComposite in2="hardAlpha" operator="out"/>
<feColorMatrix type="matrix" values="0 0 0 0 0.533333 0 0 0 0 0.533333 0 0 0 0 0.533333 0 0 0 1 0"/>
<feBlend mode="normal" in2="BackgroundImageFix" result="effect1_dropShadow_87_1685"/>
<feBlend mode="normal" in="SourceGraphic" in2="effect1_dropShadow_87_1685" result="shape"/>
</filter>
<clipPath id="clip0_87_1685">
<rect width="16.3" height="19" fill="white" transform="matrix(1 0 0 -1 13.04 30)"/>
</clipPath>
</defs>
</svg>
