<svg width="195" height="42" viewBox="0 0 195 42" fill="none" xmlns="http://www.w3.org/2000/svg">
<g filter="url(#filter0_d_331_843)">
<rect x="2" y="2" width="39.08" height="38" rx="19" fill="#E6E7E8" shape-rendering="crispEdges"/>
<g clip-path="url(#clip0_331_843)">
<path d="M17.0988 18.1265V28.6338H13.5999V18.1265H17.0988ZM17.3214 14.8821C17.3285 15.3981 17.15 15.8293 16.786 16.1756C16.422 16.522 15.9431 16.6952 15.3493 16.6952H15.3281C14.7485 16.6952 14.282 16.522 13.9286 16.1756C13.5751 15.8293 13.3984 15.3981 13.3984 14.8821C13.3984 14.3591 13.5805 13.9261 13.9445 13.5833C14.3085 13.2405 14.7839 13.0691 15.3705 13.0691C15.9572 13.0691 16.4273 13.2405 16.7807 13.5833C17.1341 13.9261 17.3144 14.3591 17.3214 14.8821ZM29.6842 22.6115V28.6338H26.1959V23.0144C26.1959 22.2722 26.0527 21.6908 25.7665 21.2702C25.4802 20.8497 25.0331 20.6394 24.4252 20.6394C23.9799 20.6394 23.607 20.7613 23.3066 21.0052C23.0062 21.249 22.7818 21.5512 22.6334 21.9117C22.5556 22.1237 22.5167 22.41 22.5167 22.7705V28.6338H19.0285C19.0426 25.8135 19.0497 23.5268 19.0497 21.7739C19.0497 20.0209 19.0461 18.9747 19.0391 18.6355L19.0285 18.1265H22.5167V19.6533H22.4955C22.6369 19.4271 22.7818 19.2292 22.9302 19.0596C23.0787 18.8899 23.2784 18.7061 23.5293 18.5082C23.7802 18.3103 24.0877 18.1566 24.4517 18.047C24.8158 17.9375 25.2204 17.8827 25.6657 17.8827C26.8744 17.8827 27.8464 18.2838 28.5815 19.0861C29.3166 19.8883 29.6842 21.0635 29.6842 22.6115Z" fill="#040404"/>
</g>
</g>
<g filter="url(#filter1_d_331_843)">
<rect x="53.0801" y="2" width="37.45" height="38" rx="18.725" fill="#E6E7E8" shape-rendering="crispEdges"/>
<g clip-path="url(#clip1_331_843)">
<path d="M76.5494 11.627V14.4261H74.8848C74.2769 14.4261 73.8669 14.5533 73.6549 14.8078C73.4428 15.0622 73.3368 15.4439 73.3368 15.9528V17.9568H76.4434L76.0299 21.0951H73.3368V29.1426H70.0924V21.0951H67.3887V17.9568H70.0924V15.6454C70.0924 14.3306 70.4599 13.311 71.195 12.5865C71.9302 11.862 72.9091 11.4997 74.132 11.4997C75.171 11.4997 75.9768 11.5421 76.5494 11.627Z" fill="#040404"/>
</g>
</g>
<g filter="url(#filter2_d_331_843)">
<rect x="102.529" y="2" width="39.08" height="38" rx="19" fill="#E6E7E8" shape-rendering="crispEdges"/>
<g clip-path="url(#clip2_331_843)">
<path d="M124.222 24.6897V26.9269C124.222 27.4005 124.084 27.6373 123.808 27.6373C123.646 27.6373 123.487 27.5595 123.331 27.404V24.2126C123.487 24.0571 123.646 23.9794 123.808 23.9794C124.084 23.9794 124.222 24.2161 124.222 24.6897ZM127.806 24.7003V25.1881H126.851V24.7003C126.851 24.2197 127.01 23.9794 127.328 23.9794C127.646 23.9794 127.806 24.2197 127.806 24.7003ZM117.563 22.389H118.698V21.3923H115.39V22.389H116.503V28.4219H117.563V22.389ZM120.617 28.4219H121.561V23.1842H120.617V27.192C120.405 27.4888 120.203 27.6373 120.013 27.6373C119.885 27.6373 119.811 27.5631 119.79 27.4146C119.783 27.3934 119.779 27.2697 119.779 27.0435V23.1842H118.836V27.3298C118.836 27.6762 118.864 27.9342 118.92 28.1038C119.005 28.3653 119.21 28.4961 119.535 28.4961C119.875 28.4961 120.235 28.2805 120.617 27.8493V28.4219ZM125.165 26.8527V24.764C125.165 24.248 125.134 23.8981 125.07 23.7143C124.95 23.3185 124.699 23.1205 124.317 23.1205C123.964 23.1205 123.635 23.3114 123.331 23.6931V21.3923H122.388V28.4219H123.331V27.9129C123.649 28.3017 123.978 28.4961 124.317 28.4961C124.699 28.4961 124.95 28.3017 125.07 27.9129C125.134 27.7221 125.165 27.3687 125.165 26.8527ZM128.749 26.7467V26.6088H127.784C127.784 26.9693 127.777 27.1849 127.763 27.2556C127.714 27.51 127.572 27.6373 127.339 27.6373C127.014 27.6373 126.851 27.3934 126.851 26.9057V25.9833H128.749V24.8912C128.749 24.3328 128.654 23.9228 128.463 23.6613C128.187 23.3008 127.813 23.1205 127.339 23.1205C126.858 23.1205 126.48 23.3008 126.205 23.6613C126.007 23.9228 125.908 24.3328 125.908 24.8912V26.7254C125.908 27.2839 126.01 27.6938 126.215 27.9554C126.491 28.3158 126.872 28.4961 127.36 28.4961C127.869 28.4961 128.251 28.3088 128.505 27.9342C128.633 27.7433 128.707 27.5525 128.728 27.3616C128.742 27.298 128.749 27.093 128.749 26.7467ZM122.303 17.0664V14.8398C122.303 14.3521 122.151 14.1083 121.847 14.1083C121.543 14.1083 121.391 14.3521 121.391 14.8398V17.0664C121.391 17.5612 121.543 17.8086 121.847 17.8086C122.151 17.8086 122.303 17.5612 122.303 17.0664ZM129.926 25.029C129.926 26.683 129.834 27.92 129.65 28.74C129.551 29.157 129.346 29.5069 129.035 29.7896C128.724 30.0724 128.364 30.2349 127.954 30.2773C126.653 30.4258 124.692 30.5 122.069 30.5C119.447 30.5 117.486 30.4258 116.185 30.2773C115.775 30.2349 115.413 30.0724 115.098 29.7896C114.784 29.5069 114.58 29.157 114.489 28.74C114.305 27.9483 114.213 26.7113 114.213 25.029C114.213 23.375 114.305 22.138 114.489 21.3181C114.588 20.901 114.793 20.5512 115.104 20.2684C115.415 19.9857 115.779 19.8196 116.196 19.7701C117.489 19.6287 119.447 19.558 122.069 19.558C124.692 19.558 126.653 19.6287 127.954 19.7701C128.364 19.8196 128.726 19.9857 129.041 20.2684C129.355 20.5512 129.559 20.901 129.65 21.3181C129.834 22.1097 129.926 23.3467 129.926 25.029ZM119.345 11.5H120.426L119.143 15.7305V18.6038H118.083V15.7305C117.984 15.2074 117.768 14.4581 117.436 13.4827C117.175 12.7547 116.945 12.0938 116.747 11.5H117.871L118.624 14.2885L119.345 11.5ZM123.268 15.0307V16.8862C123.268 17.4587 123.169 17.8757 122.971 18.1373C122.702 18.4978 122.327 18.678 121.847 18.678C121.373 18.678 121.002 18.4978 120.734 18.1373C120.536 17.8687 120.437 17.4516 120.437 16.8862V15.0307C120.437 14.4652 120.536 14.0517 120.734 13.7902C121.002 13.4297 121.373 13.2494 121.847 13.2494C122.327 13.2494 122.702 13.4297 122.971 13.7902C123.169 14.0517 123.268 14.4652 123.268 15.0307ZM126.819 13.3131V18.6038H125.855V18.0206C125.48 18.4589 125.116 18.678 124.763 18.678C124.437 18.678 124.229 18.5472 124.137 18.2857C124.08 18.1161 124.052 17.851 124.052 17.4905V13.3131H125.017V17.2042C125.017 17.4375 125.021 17.5612 125.028 17.5753C125.049 17.7308 125.123 17.8086 125.25 17.8086C125.441 17.8086 125.643 17.6566 125.855 17.3527V13.3131H126.819Z" fill="#040404"/>
</g>
</g>
<g filter="url(#filter3_d_331_843)">
<rect x="153.609" y="2" width="39.08" height="38" rx="19" fill="#E6E7E8" shape-rendering="crispEdges"/>
<g clip-path="url(#clip3_331_843)">
<path d="M175.07 22.9188C175.07 22.9188 175.202 22.7863 175.467 22.5212C175.732 22.2561 175.865 21.749 175.865 20.9997C175.865 20.2505 175.6 19.6108 175.07 19.0806C174.54 18.5505 173.9 18.2854 173.151 18.2854C172.401 18.2854 171.762 18.5505 171.232 19.0806C170.701 19.6108 170.436 20.2505 170.436 20.9997C170.436 21.749 170.701 22.3887 171.232 22.9188C171.762 23.4489 172.401 23.714 173.151 23.714C173.9 23.714 174.54 23.4489 175.07 22.9188ZM176.109 18.0416C176.109 18.0416 176.312 18.2448 176.718 18.6512C177.125 19.0577 177.328 19.8405 177.328 20.9997C177.328 22.1589 176.922 23.145 176.109 23.9579C175.296 24.7707 174.31 25.1772 173.151 25.1772C171.991 25.1772 171.005 24.7707 170.193 23.9579C169.38 23.145 168.973 22.1589 168.973 20.9997C168.973 19.8405 169.38 18.8544 170.193 18.0416C171.005 17.2287 171.991 16.8223 173.151 16.8223C174.31 16.8223 175.296 17.2287 176.109 18.0416ZM178.187 15.9634C178.187 15.9634 178.235 16.0112 178.33 16.1066C178.426 16.202 178.473 16.384 178.473 16.6526C178.473 16.9212 178.378 17.1509 178.187 17.3418C177.996 17.5326 177.766 17.6281 177.498 17.6281C177.229 17.6281 176.999 17.5326 176.809 17.3418C176.618 17.1509 176.522 16.9212 176.522 16.6526C176.522 16.384 176.618 16.1543 176.809 15.9634C176.999 15.7726 177.229 15.6772 177.498 15.6772C177.766 15.6772 177.996 15.7726 178.187 15.9634ZM173.962 14.3147C173.962 14.3147 173.839 14.3156 173.593 14.3174C173.348 14.3192 173.2 14.32 173.151 14.32C173.101 14.32 172.831 14.3183 172.34 14.3147C171.848 14.3112 171.475 14.3112 171.221 14.3147C170.967 14.3183 170.625 14.3289 170.198 14.3465C169.77 14.3642 169.406 14.3996 169.106 14.4526C168.805 14.5056 168.553 14.571 168.348 14.6487C167.994 14.7901 167.683 14.9951 167.415 15.2637C167.146 15.5323 166.941 15.8433 166.8 16.1967C166.722 16.4017 166.657 16.6544 166.604 16.9548C166.551 17.2552 166.515 17.6192 166.497 18.0469C166.48 18.4745 166.469 18.8156 166.466 19.07C166.462 19.3245 166.462 19.6974 166.466 20.1886C166.469 20.6799 166.471 20.9502 166.471 20.9997C166.471 21.0492 166.469 21.3196 166.466 21.8108C166.462 22.3021 166.462 22.6749 166.466 22.9294C166.469 23.1839 166.48 23.5249 166.497 23.9526C166.515 24.3802 166.551 24.7442 166.604 25.0446C166.657 25.3451 166.722 25.5977 166.8 25.8027C166.941 26.1562 167.146 26.4672 167.415 26.7358C167.683 27.0044 167.994 27.2094 168.348 27.3507C168.553 27.4285 168.805 27.4939 169.106 27.5469C169.406 27.5999 169.77 27.6352 170.198 27.6529C170.625 27.6706 170.967 27.6812 171.221 27.6847C171.475 27.6882 171.848 27.6882 172.34 27.6847C172.831 27.6812 173.101 27.6794 173.151 27.6794C173.2 27.6794 173.471 27.6812 173.962 27.6847C174.453 27.6882 174.826 27.6882 175.08 27.6847C175.335 27.6812 175.676 27.6706 176.104 27.6529C176.531 27.6352 176.895 27.5999 177.196 27.5469C177.496 27.4939 177.749 27.4285 177.954 27.3507C178.307 27.2094 178.618 27.0044 178.887 26.7358C179.155 26.4672 179.36 26.1562 179.502 25.8027C179.579 25.5977 179.645 25.3451 179.698 25.0446C179.751 24.7442 179.786 24.3802 179.804 23.9526C179.822 23.5249 179.832 23.1839 179.836 22.9294C179.839 22.6749 179.839 22.3021 179.836 21.8108C179.832 21.3196 179.83 21.0492 179.83 20.9997C179.83 20.9502 179.832 20.6799 179.836 20.1886C179.839 19.6974 179.839 19.3245 179.836 19.07C179.832 18.8156 179.822 18.4745 179.804 18.0469C179.786 17.6192 179.751 17.2552 179.698 16.9548C179.645 16.6544 179.579 16.4017 179.502 16.1967C179.36 15.8433 179.155 15.5323 178.887 15.2637C178.618 14.9951 178.307 14.7901 177.954 14.6487C177.749 14.571 177.496 14.5056 177.196 14.4526C176.895 14.3996 176.531 14.3642 176.104 14.3465C175.676 14.3289 175.335 14.3183 175.08 14.3147C174.826 14.3112 174.453 14.3112 173.962 14.3147ZM181.241 17.6387C181.276 18.2607 181.294 19.381 181.294 20.9997C181.294 22.6184 181.276 23.7387 181.241 24.3608C181.17 25.831 180.732 26.969 179.926 27.7748C179.12 28.5806 177.982 29.0189 176.512 29.0896C175.89 29.1249 174.769 29.1426 173.151 29.1426C171.532 29.1426 170.412 29.1249 169.79 29.0896C168.319 29.0189 167.181 28.5806 166.376 27.7748C165.57 26.969 165.132 25.831 165.061 24.3608C165.025 23.7387 165.008 22.6184 165.008 20.9997C165.008 19.381 165.025 18.2607 165.061 17.6387C165.132 16.1684 165.57 15.0304 166.376 14.2246C167.181 13.4188 168.319 12.9806 169.79 12.9099C170.412 12.8745 171.532 12.8569 173.151 12.8569C174.769 12.8569 175.89 12.8745 176.512 12.9099C177.982 12.9806 179.12 13.4188 179.926 14.2246C180.732 15.0304 181.17 16.1684 181.241 17.6387Z" fill="#040404"/>
</g>
</g>
<defs>
<filter id="filter0_d_331_843" x="0" y="0" width="43.0801" height="42" filterUnits="userSpaceOnUse" color-interpolation-filters="sRGB">
<feFlood flood-opacity="0" result="BackgroundImageFix"/>
<feColorMatrix in="SourceAlpha" type="matrix" values="0 0 0 0 0 0 0 0 0 0 0 0 0 0 0 0 0 0 127 0" result="hardAlpha"/>
<feOffset/>
<feGaussianBlur stdDeviation="1"/>
<feComposite in2="hardAlpha" operator="out"/>
<feColorMatrix type="matrix" values="0 0 0 0 0.533333 0 0 0 0 0.533333 0 0 0 0 0.533333 0 0 0 1 0"/>
<feBlend mode="normal" in2="BackgroundImageFix" result="effect1_dropShadow_331_843"/>
<feBlend mode="normal" in="SourceGraphic" in2="effect1_dropShadow_331_843" result="shape"/>
</filter>
<filter id="filter1_d_331_843" x="51.0801" y="0" width="41.4492" height="42" filterUnits="userSpaceOnUse" color-interpolation-filters="sRGB">
<feFlood flood-opacity="0" result="BackgroundImageFix"/>
<feColorMatrix in="SourceAlpha" type="matrix" values="0 0 0 0 0 0 0 0 0 0 0 0 0 0 0 0 0 0 127 0" result="hardAlpha"/>
<feOffset/>
<feGaussianBlur stdDeviation="1"/>
<feComposite in2="hardAlpha" operator="out"/>
<feColorMatrix type="matrix" values="0 0 0 0 0.533333 0 0 0 0 0.533333 0 0 0 0 0.533333 0 0 0 1 0"/>
<feBlend mode="normal" in2="BackgroundImageFix" result="effect1_dropShadow_331_843"/>
<feBlend mode="normal" in="SourceGraphic" in2="effect1_dropShadow_331_843" result="shape"/>
</filter>
<filter id="filter2_d_331_843" x="100.529" y="0" width="43.0801" height="42" filterUnits="userSpaceOnUse" color-interpolation-filters="sRGB">
<feFlood flood-opacity="0" result="BackgroundImageFix"/>
<feColorMatrix in="SourceAlpha" type="matrix" values="0 0 0 0 0 0 0 0 0 0 0 0 0 0 0 0 0 0 127 0" result="hardAlpha"/>
<feOffset/>
<feGaussianBlur stdDeviation="1"/>
<feComposite in2="hardAlpha" operator="out"/>
<feColorMatrix type="matrix" values="0 0 0 0 0.533333 0 0 0 0 0.533333 0 0 0 0 0.533333 0 0 0 1 0"/>
<feBlend mode="normal" in2="BackgroundImageFix" result="effect1_dropShadow_331_843"/>
<feBlend mode="normal" in="SourceGraphic" in2="effect1_dropShadow_331_843" result="shape"/>
</filter>
<filter id="filter3_d_331_843" x="151.609" y="0" width="43.0801" height="42" filterUnits="userSpaceOnUse" color-interpolation-filters="sRGB">
<feFlood flood-opacity="0" result="BackgroundImageFix"/>
<feColorMatrix in="SourceAlpha" type="matrix" values="0 0 0 0 0 0 0 0 0 0 0 0 0 0 0 0 0 0 127 0" result="hardAlpha"/>
<feOffset/>
<feGaussianBlur stdDeviation="1"/>
<feComposite in2="hardAlpha" operator="out"/>
<feColorMatrix type="matrix" values="0 0 0 0 0.533333 0 0 0 0 0.533333 0 0 0 0 0.533333 0 0 0 1 0"/>
<feBlend mode="normal" in2="BackgroundImageFix" result="effect1_dropShadow_331_843"/>
<feBlend mode="normal" in="SourceGraphic" in2="effect1_dropShadow_331_843" result="shape"/>
</filter>
<clipPath id="clip0_331_843">
<rect width="16.3" height="19" fill="white" transform="matrix(1 0 0 -1 13.3906 30.5)"/>
</clipPath>
<clipPath id="clip1_331_843">
<rect width="10.86" height="19" fill="white" transform="matrix(1 0 0 -1 66.3809 30.5)"/>
</clipPath>
<clipPath id="clip2_331_843">
<rect width="16.3" height="19" fill="white" transform="matrix(1 0 0 -1 113.92 30.5)"/>
</clipPath>
<clipPath id="clip3_331_843">
<rect width="16.3" height="19" fill="white" transform="matrix(1 0 0 -1 165 30.5)"/>
</clipPath>
</defs>
</svg>
