<svg width="44" height="42" viewBox="0 0 44 42" fill="none" xmlns="http://www.w3.org/2000/svg">
<g filter="url(#filter0_d_87_1677)">
<rect x="2.04004" y="2" width="39" height="38" rx="19" fill="#E6E7E8" shape-rendering="crispEdges"/>
<g clip-path="url(#clip0_87_1677)">
<path d="M23.3424 24.1897V26.4269C23.3424 26.9005 23.2046 27.1373 22.9289 27.1373C22.7663 27.1373 22.6073 27.0595 22.4518 26.904V23.7126C22.6073 23.5571 22.7663 23.4794 22.9289 23.4794C23.2046 23.4794 23.3424 23.7161 23.3424 24.1897ZM26.9261 24.2003V24.6881H25.9719V24.2003C25.9719 23.7197 26.1309 23.4794 26.449 23.4794C26.7671 23.4794 26.9261 23.7197 26.9261 24.2003ZM16.6839 21.889H17.8184V20.8923H14.5104V21.889H15.6237V27.9219H16.6839V21.889ZM19.7375 27.9219H20.6812V22.6842H19.7375V26.692C19.5255 26.9888 19.324 27.1373 19.1332 27.1373C19.0059 27.1373 18.9317 27.0631 18.9105 26.9146C18.9034 26.8934 18.8999 26.7697 18.8999 26.5435V22.6842H17.9563V26.8298C17.9563 27.1762 17.9845 27.4342 18.0411 27.6038C18.1259 27.8653 18.3309 27.9961 18.656 27.9961C18.9953 27.9961 19.3558 27.7805 19.7375 27.3493V27.9219ZM24.2861 26.3527V24.264C24.2861 23.748 24.2543 23.3981 24.1906 23.2143C24.0705 22.8185 23.8195 22.6205 23.4378 22.6205C23.0844 22.6205 22.7557 22.8114 22.4518 23.1931V20.8923H21.5082V27.9219H22.4518V27.4129C22.7699 27.8017 23.0986 27.9961 23.4378 27.9961C23.8195 27.9961 24.0705 27.8017 24.1906 27.4129C24.2543 27.2221 24.2861 26.8687 24.2861 26.3527ZM27.8698 26.2467V26.1088H26.9049C26.9049 26.4693 26.8979 26.6849 26.8837 26.7556C26.8342 27.01 26.6929 27.1373 26.4596 27.1373C26.1345 27.1373 25.9719 26.8934 25.9719 26.4057V25.4833H27.8698V24.3912C27.8698 23.8328 27.7743 23.4228 27.5835 23.1613C27.3078 22.8008 26.9332 22.6205 26.4596 22.6205C25.979 22.6205 25.6008 22.8008 25.3251 23.1613C25.1272 23.4228 25.0283 23.8328 25.0283 24.3912V26.2254C25.0283 26.7839 25.1307 27.1938 25.3357 27.4554C25.6114 27.8158 25.9931 27.9961 26.4808 27.9961C26.9897 27.9961 27.3714 27.8088 27.6259 27.4342C27.7531 27.2433 27.8274 27.0525 27.8486 26.8616C27.8627 26.798 27.8698 26.593 27.8698 26.2467ZM21.4233 16.5664V14.3398C21.4233 13.8521 21.2714 13.6083 20.9674 13.6083C20.6635 13.6083 20.5115 13.8521 20.5115 14.3398V16.5664C20.5115 17.0612 20.6635 17.3086 20.9674 17.3086C21.2714 17.3086 21.4233 17.0612 21.4233 16.5664ZM29.0467 24.529C29.0467 26.183 28.9548 27.42 28.771 28.24C28.672 28.657 28.4671 29.0069 28.156 29.2896C27.845 29.5724 27.4845 29.7349 27.0746 29.7773C25.774 29.9258 23.8125 30 21.1901 30C18.5677 30 16.6062 29.9258 15.3056 29.7773C14.8956 29.7349 14.5334 29.5724 14.2188 29.2896C13.9043 29.0069 13.7011 28.657 13.6092 28.24C13.4254 27.4483 13.3335 26.2113 13.3335 24.529C13.3335 22.875 13.4254 21.638 13.6092 20.8181C13.7081 20.401 13.9131 20.0512 14.2241 19.7684C14.5351 19.4857 14.8992 19.3196 15.3162 19.2701C16.6097 19.1287 18.5677 19.058 21.1901 19.058C23.8125 19.058 25.774 19.1287 27.0746 19.2701C27.4845 19.3196 27.8468 19.4857 28.1613 19.7684C28.4759 20.0512 28.6791 20.401 28.771 20.8181C28.9548 21.6097 29.0467 22.8467 29.0467 24.529ZM18.4652 11H19.5467L18.2637 15.2305V18.1038H17.2035V15.2305C17.1045 14.7074 16.8889 13.9581 16.5567 12.9827C16.2952 12.2547 16.0655 11.5938 15.8675 11H16.9914L17.7442 13.7885L18.4652 11ZM22.3882 14.5307V16.3862C22.3882 16.9587 22.2892 17.3757 22.0913 17.6373C21.8227 17.9978 21.4481 18.178 20.9674 18.178C20.4938 18.178 20.1227 17.9978 19.8541 17.6373C19.6562 17.3687 19.5573 16.9516 19.5573 16.3862V14.5307C19.5573 13.9652 19.6562 13.5517 19.8541 13.2902C20.1227 12.9297 20.4938 12.7494 20.9674 12.7494C21.4481 12.7494 21.8227 12.9297 22.0913 13.2902C22.2892 13.5517 22.3882 13.9652 22.3882 14.5307ZM25.9401 12.8131V18.1038H24.9752V17.5206C24.6006 17.9589 24.2366 18.178 23.8832 18.178C23.558 18.178 23.3495 18.0472 23.2576 17.7857C23.2011 17.6161 23.1728 17.351 23.1728 16.9905V12.8131H24.1376V16.7042C24.1376 16.9375 24.1412 17.0612 24.1482 17.0753C24.1694 17.2308 24.2437 17.3086 24.3709 17.3086C24.5617 17.3086 24.7632 17.1566 24.9752 16.8527V12.8131H25.9401Z" fill="#040404"/>
</g>
</g>
<defs>
<filter id="filter0_d_87_1677" x="0.0400391" y="0" width="43" height="42" filterUnits="userSpaceOnUse" color-interpolation-filters="sRGB">
<feFlood flood-opacity="0" result="BackgroundImageFix"/>
<feColorMatrix in="SourceAlpha" type="matrix" values="0 0 0 0 0 0 0 0 0 0 0 0 0 0 0 0 0 0 127 0" result="hardAlpha"/>
<feOffset/>
<feGaussianBlur stdDeviation="1"/>
<feComposite in2="hardAlpha" operator="out"/>
<feColorMatrix type="matrix" values="0 0 0 0 0.533333 0 0 0 0 0.533333 0 0 0 0 0.533333 0 0 0 1 0"/>
<feBlend mode="normal" in2="BackgroundImageFix" result="effect1_dropShadow_87_1677"/>
<feBlend mode="normal" in="SourceGraphic" in2="effect1_dropShadow_87_1677" result="shape"/>
</filter>
<clipPath id="clip0_87_1677">
<rect width="16.3" height="19" fill="white" transform="matrix(1 0 0 -1 13.04 30)"/>
</clipPath>
</defs>
</svg>
